<svg width="149" height="67" viewBox="0 0 149 67">
  <g fill="none">
    <rect width="51" height="7" x="95" y="12" fill="#F44246" rx="3.5"/>
    <rect width="54" height="7" x="95" fill="#FE502F" rx="3.5"/>
    <rect width="34" height="7" x="95" y="36" fill="#E12A6C" rx="3.5"/>
    <rect width="17" height="7" x="95" y="48" fill="#E12A6C" rx="3.5"/>
    <rect width="17" height="7" x="37" y="48" fill="#E12A6C" rx="3.5"/>
    <rect width="34" height="7" x="20" y="36" fill="#E12A6C" rx="3.5"/>
    <rect width="44" height="7" x="10" y="24" fill="#EB3757" rx="3.5"/>
    <rect width="50" height="7" x="4" y="12" fill="#F44246" rx="3.5"/>
    <rect width="54" height="7" fill="#FE502F" rx="3.5"/>
    <rect width="44" height="7" x="95" y="24" fill="#EB3757" rx="3.5"/>
    <rect width="31" height="7" x="59" y="60" fill="#DD2476" rx="3.5"/>
    <rect width="31" height="7" x="59" y="48" fill="#E12A6C" rx="3.5"/>
    <rect width="31" height="7" x="59" y="36" fill="#E12A6C" rx="3.5"/>
    <rect width="31" height="7" x="59" y="24" fill="#EB3757" rx="3.5"/>
    <rect width="31" height="7" x="59" y="12" fill="#F44246" rx="3.5"/>
    <rect width="31" height="7" x="59" fill="#FE502F" rx="3.5"/>
  </g>
</svg>
